<svg width="375" height="3354" viewBox="0 0 375 3354" fill="none" xmlns="http://www.w3.org/2000/svg">
<rect width="375" height="3354" fill="#CDBFF5"/>
<path d="M-15.9999 3334C-16.0181 3335.89 -16.6975 3354 -36 3354V3354C-16.6975 3354 -16.0181 3372.11 -15.9999 3374C-15.9817 3372.11 -15.3025 3354 4 3354V3354C-15.3025 3354 -15.9817 3335.89 -15.9999 3334Z" fill="#F9F4FC"/>
<path d="M29.1797 3334C29.1615 3335.89 28.4822 3354 9.17969 3354V3354C28.4822 3354 29.1615 3372.11 29.1797 3374C29.198 3372.11 29.8772 3354 49.1797 3354V3354C29.8772 3354 29.198 3335.89 29.1797 3334Z" fill="#F9F4FC"/>
<path d="M74.3594 3334C74.3412 3335.89 73.6619 3354 54.3594 3354V3354C73.6619 3354 74.3412 3372.11 74.3594 3374C74.3776 3372.11 75.0569 3354 94.3594 3354V3354C75.0569 3354 74.3776 3335.89 74.3594 3334Z" fill="#F9F4FC"/>
<path d="M119.539 3334C119.521 3335.89 118.842 3354 99.5391 3354V3354C118.842 3354 119.521 3372.11 119.539 3374C119.557 3372.11 120.237 3354 139.539 3354V3354C120.237 3354 119.557 3335.89 119.539 3334Z" fill="#F9F4FC"/>
<path d="M164.719 3334C164.701 3335.89 164.021 3354 144.719 3354V3354C164.021 3354 164.701 3372.11 164.719 3374C164.737 3372.11 165.416 3354 184.719 3354V3354C165.416 3354 164.737 3335.89 164.719 3334Z" fill="#F9F4FC"/>
<path d="M209.898 3334C209.88 3335.89 209.201 3354 189.898 3354V3354C209.201 3354 209.88 3372.11 209.898 3374C209.917 3372.11 210.596 3354 229.898 3354V3354C210.596 3354 209.917 3335.89 209.898 3334Z" fill="#F9F4FC"/>
<path d="M255.078 3334C255.06 3335.89 254.381 3354 235.078 3354V3354C254.381 3354 255.06 3372.11 255.078 3374C255.096 3372.11 255.776 3354 275.078 3354V3354C255.776 3354 255.096 3335.89 255.078 3334Z" fill="#F9F4FC"/>
<path d="M300.258 3334C300.24 3335.89 299.56 3354 280.258 3354V3354C299.56 3354 300.24 3372.11 300.258 3374C300.276 3372.11 300.955 3354 320.258 3354V3354C300.955 3354 300.276 3335.89 300.258 3334Z" fill="#F9F4FC"/>
<path d="M345.438 3334C345.419 3335.89 344.74 3354 325.438 3354V3354C344.74 3354 345.419 3372.11 345.438 3374C345.456 3372.11 346.135 3354 365.438 3354V3354C346.135 3354 345.456 3335.89 345.438 3334Z" fill="#F9F4FC"/>
<path d="M390.617 3334C390.599 3335.89 389.92 3354 370.617 3354V3354C389.92 3354 390.599 3372.11 390.617 3374C390.635 3372.11 391.315 3354 410.617 3354V3354C391.315 3354 390.635 3335.89 390.617 3334Z" fill="#F9F4FC"/>
</svg>
