<svg width="375" height="41" viewBox="0 0 375 41" fill="none" xmlns="http://www.w3.org/2000/svg">
<path d="M-15.9999 0.673828C-16.0181 2.56807 -16.6975 20.6726 -36 20.6726V20.675C-16.6975 20.675 -16.0181 38.7796 -15.9999 40.6738C-15.9817 38.7796 -15.3025 20.675 4 20.675V20.6726C-15.3025 20.6726 -15.9817 2.56807 -15.9999 0.673828Z" fill="#F9F4FC"/>
<path d="M29.1797 0.673828C29.1615 2.56807 28.4822 20.6726 9.17969 20.6726V20.675C28.4822 20.675 29.1615 38.7796 29.1797 40.6738C29.198 38.7796 29.8772 20.675 49.1797 20.675V20.6726C29.8772 20.6726 29.198 2.56807 29.1797 0.673828Z" fill="#F9F4FC"/>
<path d="M74.3594 0.673828C74.3412 2.56807 73.6619 20.6726 54.3594 20.6726V20.675C73.6619 20.675 74.3412 38.7796 74.3594 40.6738C74.3776 38.7796 75.0569 20.675 94.3594 20.675V20.6726C75.0569 20.6726 74.3776 2.56807 74.3594 0.673828Z" fill="#F9F4FC"/>
<path d="M119.539 0.673828C119.521 2.56807 118.842 20.6726 99.5391 20.6726V20.675C118.842 20.675 119.521 38.7796 119.539 40.6738C119.557 38.7796 120.237 20.675 139.539 20.675V20.6726C120.237 20.6726 119.557 2.56807 119.539 0.673828Z" fill="#F9F4FC"/>
<path d="M164.719 0.673828C164.701 2.56807 164.021 20.6726 144.719 20.6726V20.675C164.021 20.675 164.701 38.7796 164.719 40.6738C164.737 38.7796 165.416 20.675 184.719 20.675V20.6726C165.416 20.6726 164.737 2.56807 164.719 0.673828Z" fill="#F9F4FC"/>
<path d="M209.898 0.673828C209.88 2.56807 209.201 20.6726 189.898 20.6726V20.675C209.201 20.675 209.88 38.7796 209.898 40.6738C209.917 38.7796 210.596 20.675 229.898 20.675V20.6726C210.596 20.6726 209.917 2.56807 209.898 0.673828Z" fill="#F9F4FC"/>
<path d="M255.078 0.673828C255.06 2.56807 254.381 20.6726 235.078 20.6726V20.675C254.381 20.675 255.06 38.7796 255.078 40.6738C255.096 38.7796 255.776 20.675 275.078 20.675V20.6726C255.776 20.6726 255.096 2.56807 255.078 0.673828Z" fill="#F9F4FC"/>
<path d="M300.258 0.673828C300.24 2.56807 299.56 20.6726 280.258 20.6726V20.675C299.56 20.675 300.24 38.7796 300.258 40.6738C300.276 38.7796 300.955 20.675 320.258 20.675V20.6726C300.955 20.6726 300.276 2.56807 300.258 0.673828Z" fill="#F9F4FC"/>
<path d="M345.438 0.673828C345.419 2.56807 344.74 20.6726 325.438 20.6726V20.675C344.74 20.675 345.419 38.7796 345.438 40.6738C345.456 38.7796 346.135 20.675 365.438 20.675V20.6726C346.135 20.6726 345.456 2.56807 345.438 0.673828Z" fill="#F9F4FC"/>
<path d="M390.617 0.673828C390.599 2.56807 389.92 20.6726 370.617 20.6726V20.675C389.92 20.675 390.599 38.7796 390.617 40.6738C390.635 38.7796 391.315 20.675 410.617 20.675V20.6726C391.315 20.6726 390.635 2.56807 390.617 0.673828Z" fill="#F9F4FC"/>
</svg>
