<svg width="375" height="500" viewBox="0 0 375 500" fill="none" xmlns="http://www.w3.org/2000/svg">
<rect y="-31" width="375" height="531" fill="#F8F7FF"/>
<path d="M29.0001 471C28.9737 473.747 27.9886 499.998 0 499.998V500.002C27.9886 500.002 28.9737 526.253 29.0001 529C29.0265 526.253 30.0114 500.002 58 500.002V499.998C30.0114 499.998 29.0265 473.747 29.0001 471Z" fill="white"/>
<path d="M87.0001 471C86.9737 473.747 85.9886 499.998 58 499.998V500.002C85.9886 500.002 86.9737 526.253 87.0001 529C87.0265 526.253 88.0114 500.002 116 500.002V499.998C88.0114 499.998 87.0265 473.747 87.0001 471Z" fill="white"/>
<path d="M145 471C144.974 473.747 143.989 499.998 116 499.998V500.002C143.989 500.002 144.974 526.253 145 529C145.026 526.253 146.011 500.002 174 500.002V499.998C146.011 499.998 145.026 473.747 145 471Z" fill="white"/>
<path d="M203 471C202.974 473.747 201.989 499.998 174 499.998V500.002C201.989 500.002 202.974 526.253 203 529C203.026 526.253 204.011 500.002 232 500.002V499.998C204.011 499.998 203.026 473.747 203 471Z" fill="white"/>
<path d="M261 471C260.974 473.747 259.989 499.998 232 499.998V500.002C259.989 500.002 260.974 526.253 261 529C261.026 526.253 262.011 500.002 290 500.002V499.998C262.011 499.998 261.026 473.747 261 471Z" fill="white"/>
<path d="M319 471C318.974 473.747 317.989 499.998 290 499.998V500.002C317.989 500.002 318.974 526.253 319 529C319.026 526.253 320.011 500.002 348 500.002V499.998C320.011 499.998 319.026 473.747 319 471Z" fill="white"/>
<path d="M377 471C376.974 473.747 375.989 499.998 348 499.998V500.002C375.989 500.002 376.974 526.253 377 529C377.026 526.253 378.011 500.002 406 500.002V499.998C378.011 499.998 377.026 473.747 377 471Z" fill="white"/>
</svg>
