<svg width="21" height="21" viewBox="0 0 21 21" fill="none" xmlns="http://www.w3.org/2000/svg">
<path fill-rule="evenodd" clip-rule="evenodd" d="M3.43387 2.50628C2.64489 2.50628 2.0053 3.14587 2.0053 3.93485V17.6491C2.0053 18.4381 2.64489 19.0777 3.43387 19.0777H17.1482C17.9371 19.0777 18.5767 18.4381 18.5767 17.6491V3.93485C18.5767 3.14587 17.9371 2.50628 17.1482 2.50628H3.43387ZM0.291016 3.93485C0.291016 2.1991 1.69812 0.791992 3.43387 0.791992H17.1482C18.8839 0.791992 20.291 2.1991 20.291 3.93485V17.6491C20.291 19.3849 18.8839 20.792 17.1482 20.792H3.43387C1.69812 20.792 0.291016 19.3849 0.291016 17.6491V3.93485Z" fill="#101010"/>
<path fill-rule="evenodd" clip-rule="evenodd" d="M5.72042 8.79102C6.19381 8.79102 6.57757 9.17477 6.57757 9.64816V15.3624C6.57757 15.8358 6.19381 16.2196 5.72042 16.2196C5.24704 16.2196 4.86328 15.8358 4.86328 15.3624V9.64816C4.86328 9.17477 5.24704 8.79102 5.72042 8.79102Z" fill="#F8EEFA"/>
<path fill-rule="evenodd" clip-rule="evenodd" d="M5.72042 5.3623C6.19381 5.3623 6.57757 5.74606 6.57757 6.21945V6.23088C6.57757 6.70426 6.19381 7.08802 5.72042 7.08802C5.24704 7.08802 4.86328 6.70426 4.86328 6.23088V6.21945C4.86328 5.74606 5.24704 5.3623 5.72042 5.3623Z" fill="#F8EEFA"/>
<path fill-rule="evenodd" clip-rule="evenodd" d="M10.2907 8.79102C10.7641 8.79102 11.1479 9.17477 11.1479 9.64816V15.3624C11.1479 15.8358 10.7641 16.2196 10.2907 16.2196C9.81735 16.2196 9.43359 15.8358 9.43359 15.3624V9.64816C9.43359 9.17477 9.81735 8.79102 10.2907 8.79102Z" fill="#F8EEFA"/>
<path fill-rule="evenodd" clip-rule="evenodd" d="M10.3541 9.71154C10.9435 9.12214 11.7429 8.79102 12.5765 8.79102C13.41 8.79102 14.2094 9.12214 14.7988 9.71154C15.3882 10.3009 15.7193 11.1003 15.7193 11.9339V15.3624C15.7193 15.8358 15.3356 16.2196 14.8622 16.2196C14.3888 16.2196 14.005 15.8358 14.005 15.3624V11.9339C14.005 11.555 13.8545 11.1916 13.5866 10.9237C13.3187 10.6558 12.9553 10.5053 12.5765 10.5053C12.1976 10.5053 11.8342 10.6558 11.5663 10.9237C11.2984 11.1916 11.1479 11.555 11.1479 11.9339C11.1479 12.4073 10.7641 12.791 10.2907 12.791C9.81735 12.791 9.43359 12.4073 9.43359 11.9339C9.43359 11.1003 9.76472 10.3009 10.3541 9.71154Z" fill="#F8EEFA"/>
</svg>
