<svg width="23" height="18" viewBox="0 0 23 18" fill="none" xmlns="http://www.w3.org/2000/svg">
<path fill-rule="evenodd" clip-rule="evenodd" d="M18.7187 1.15712C17.3339 -0.0845696 15.4715 -0.0441314 13.8571 0.560392C11.9824 1.26237 10.7248 2.99559 10.7501 5.00467V5.24003C8.05867 5.09632 5.69119 3.77189 4.1099 1.56317C3.96066 1.35471 3.71528 1.23693 3.45928 1.25088C3.20328 1.26482 2.97214 1.40857 2.84643 1.63201L3.50008 1.99977C2.84643 1.63201 2.84623 1.63237 2.84601 1.63276L2.84549 1.63368L2.84417 1.63605L2.84041 1.64283L2.82859 1.66448C2.81886 1.68248 2.80551 1.70754 2.78906 1.73933C2.75616 1.80288 2.71078 1.89344 2.65706 2.00823C2.54976 2.23754 2.40844 2.56512 2.26683 2.96846C1.98508 3.77097 1.6943 4.89571 1.68186 6.15474C1.66938 7.41953 1.93833 8.83237 2.78957 10.1773C3.46566 11.2455 4.48689 12.2357 5.95728 13.0691C4.54437 13.8585 3.13918 14.313 1.52925 14.2503C1.18118 14.2368 0.869606 14.4647 0.777044 14.8005C0.684481 15.1363 0.835301 15.4916 1.14115 15.6583C4.57559 17.5302 8.38593 18.2116 11.7432 17.237L11.7433 17.237C15.5583 16.1287 18.7042 13.2596 19.9071 8.9776L19.9081 8.97399C20.2529 7.7227 20.4291 6.43117 20.4322 5.1336C20.4328 5.13238 20.4333 5.13113 20.4339 5.12987C20.4673 5.05362 20.52 4.94438 20.5921 4.80111C20.6711 4.64392 20.7612 4.46963 20.8611 4.27628C20.9479 4.10826 21.0422 3.92584 21.1431 3.72774C21.5448 2.9393 22.0387 1.93118 22.2222 1.21246C22.2405 1.14742 22.2501 1.07933 22.2501 1.00977V1.00877C22.2501 0.629746 21.9673 0.310296 21.5911 0.264307C21.4295 0.24456 21.2726 0.277897 21.1388 0.351495C20.4612 0.679337 19.8145 0.856416 19.0832 1.05668C18.9642 1.0893 18.8428 1.12252 18.7187 1.15712ZM20.173 2.30899C19.9055 2.38851 19.6424 2.46034 19.3866 2.5302C19.1552 2.59337 18.9298 2.65493 18.7124 2.7191C18.4333 2.80145 18.1317 2.71496 17.9388 2.49718C17.1055 1.5569 15.8253 1.4251 14.3831 1.96514C13.0654 2.45854 12.2316 3.64685 12.25 4.98948L12.2501 4.99977V5.99976C12.2501 6.40651 11.9259 6.73912 11.5193 6.74952C8.45855 6.82781 5.68458 5.61341 3.69433 3.43084C3.69027 3.44227 3.6862 3.45377 3.68214 3.46535C3.43545 4.168 3.19211 5.12445 3.18179 6.16955C3.17153 7.20887 3.3912 8.3231 4.05703 9.37508C4.72178 10.4254 5.86649 11.4694 7.7998 12.3123C8.05138 12.4219 8.22297 12.6603 8.24716 12.9337C8.27135 13.207 8.14429 13.4718 7.91587 13.624C6.75688 14.396 5.56473 15.0409 4.26008 15.4129C6.6984 16.2667 9.157 16.4258 11.3249 15.7965C14.6693 14.825 17.407 12.3288 18.4625 8.57381C18.7807 7.41826 18.9387 6.22447 18.9321 5.02592L19.6821 5.02177L18.9321 5.02779C18.9309 4.87719 18.9748 4.74872 18.9877 4.71083L18.9887 4.70781C19.0096 4.64645 19.0354 4.58401 19.0601 4.52761C19.1102 4.41338 19.1777 4.27497 19.2519 4.1273C19.331 3.97004 19.4297 3.77899 19.5354 3.57431C19.6233 3.40404 19.7161 3.22433 19.8066 3.04679C19.9324 2.7998 20.0568 2.55076 20.173 2.30899Z" fill="#101010"/>
</svg>
